<svg width="180" height="40" viewBox="0 0 180 40" fill="none" xmlns="http://www.w3.org/2000/svg">
<path d="M49.472 14.368H44.096V11.2H58.736V14.368H53.36V28H49.472V14.368ZM68.4119 14.896C70.0119 14.896 71.2999 15.376 72.2759 16.336C73.2679 17.296 73.7639 18.72 73.7639 20.608V28H70.0199V21.184C70.0199 20.16 69.7959 19.4 69.3479 18.904C68.8999 18.392 68.2519 18.136 67.4039 18.136C66.4599 18.136 65.7079 18.432 65.1479 19.024C64.5879 19.6 64.3079 20.464 64.3079 21.616V28H60.5639V10.192H64.3079V16.432C64.8039 15.936 65.4039 15.56 66.1079 15.304C66.8119 15.032 67.5799 14.896 68.4119 14.896ZM89.9463 21.592C89.9463 21.64 89.9223 21.976 89.8743 22.6H80.1063C80.2823 23.4 80.6983 24.032 81.3543 24.496C82.0103 24.96 82.8263 25.192 83.8023 25.192C84.4743 25.192 85.0663 25.096 85.5783 24.904C86.1063 24.696 86.5943 24.376 87.0423 23.944L89.0343 26.104C87.8183 27.496 86.0423 28.192 83.7063 28.192C82.2503 28.192 80.9623 27.912 79.8423 27.352C78.7223 26.776 77.8583 25.984 77.2503 24.976C76.6423 23.968 76.3383 22.824 76.3383 21.544C76.3383 20.28 76.6343 19.144 77.2263 18.136C77.8343 17.112 78.6583 16.32 79.6983 15.76C80.7543 15.184 81.9303 14.896 83.2263 14.896C84.4903 14.896 85.6343 15.168 86.6583 15.712C87.6823 16.256 88.4823 17.04 89.0583 18.064C89.6503 19.072 89.9463 20.248 89.9463 21.592ZM83.2503 17.728C82.4023 17.728 81.6903 17.968 81.1143 18.448C80.5383 18.928 80.1863 19.584 80.0583 20.416H86.4183C86.2903 19.6 85.9383 18.952 85.3623 18.472C84.7863 17.976 84.0823 17.728 83.2503 17.728ZM105.02 28.288C103.692 28.288 102.404 28.112 101.156 27.76C99.9238 27.392 98.9318 26.92 98.1798 26.344L99.4998 23.416C100.22 23.944 101.076 24.368 102.068 24.688C103.06 25.008 104.052 25.168 105.044 25.168C106.148 25.168 106.964 25.008 107.492 24.688C108.02 24.352 108.284 23.912 108.284 23.368C108.284 22.968 108.124 22.64 107.804 22.384C107.5 22.112 107.1 21.896 106.604 21.736C106.124 21.576 105.468 21.4 104.636 21.208C103.356 20.904 102.308 20.6 101.492 20.296C100.676 19.992 99.9718 19.504 99.3798 18.832C98.8038 18.16 98.5158 17.264 98.5158 16.144C98.5158 15.168 98.7798 14.288 99.3078 13.504C99.8358 12.704 100.628 12.072 101.684 11.608C102.756 11.144 104.06 10.912 105.596 10.912C106.668 10.912 107.716 11.04 108.74 11.296C109.764 11.552 110.66 11.92 111.428 12.4L110.228 15.352C108.676 14.472 107.124 14.032 105.572 14.032C104.484 14.032 103.676 14.208 103.148 14.56C102.636 14.912 102.38 15.376 102.38 15.952C102.38 16.528 102.676 16.96 103.268 17.248C103.876 17.52 104.796 17.792 106.028 18.064C107.308 18.368 108.356 18.672 109.172 18.976C109.988 19.28 110.684 19.76 111.26 20.416C111.852 21.072 112.148 21.96 112.148 23.08C112.148 24.04 111.876 24.92 111.332 25.72C110.804 26.504 110.004 27.128 108.932 27.592C107.86 28.056 106.556 28.288 105.02 28.288ZM122.869 27.376C122.501 27.648 122.045 27.856 121.501 28C120.973 28.128 120.413 28.192 119.821 28.192C118.285 28.192 117.093 27.8 116.245 27.016C115.413 26.232 114.997 25.08 114.997 23.56V18.256H113.005V15.376H114.997V12.232H118.741V15.376H121.957V18.256H118.741V23.512C118.741 24.056 118.877 24.48 119.148 24.784C119.437 25.072 119.837 25.216 120.349 25.216C120.941 25.216 121.445 25.056 121.861 24.736L122.869 27.376ZM137.978 15.088V28H134.426V26.464C133.93 27.024 133.338 27.456 132.65 27.76C131.962 28.048 131.218 28.192 130.418 28.192C128.722 28.192 127.378 27.704 126.386 26.728C125.394 25.752 124.898 24.304 124.898 22.384V15.088H128.642V21.832C128.642 23.912 129.514 24.952 131.258 24.952C132.154 24.952 132.874 24.664 133.418 24.088C133.962 23.496 134.234 22.624 134.234 21.472V15.088H137.978ZM154.599 10.192V28H151.023V26.512C150.095 27.632 148.751 28.192 146.991 28.192C145.775 28.192 144.671 27.92 143.679 27.376C142.703 26.832 141.935 26.056 141.375 25.048C140.815 24.04 140.535 22.872 140.535 21.544C140.535 20.216 140.815 19.048 141.375 18.04C141.935 17.032 142.703 16.256 143.679 15.712C144.671 15.168 145.775 14.896 146.991 14.896C148.639 14.896 149.927 15.416 150.855 16.456V10.192H154.599ZM147.639 25.12C148.583 25.12 149.367 24.8 149.991 24.16C150.615 23.504 150.927 22.632 150.927 21.544C150.927 20.456 150.615 19.592 149.991 18.952C149.367 18.296 148.583 17.968 147.639 17.968C146.679 17.968 145.887 18.296 145.263 18.952C144.639 19.592 144.327 20.456 144.327 21.544C144.327 22.632 144.639 23.504 145.263 24.16C145.887 24.8 146.679 25.12 147.639 25.12ZM158.064 15.088H161.808V28H158.064V15.088ZM159.936 13.288C159.248 13.288 158.688 13.088 158.256 12.688C157.824 12.288 157.608 11.792 157.608 11.2C157.608 10.608 157.824 10.112 158.256 9.712C158.688 9.312 159.248 9.112 159.936 9.112C160.624 9.112 161.184 9.304 161.616 9.688C162.048 10.072 162.264 10.552 162.264 11.128C162.264 11.752 162.048 12.272 161.616 12.688C161.184 13.088 160.624 13.288 159.936 13.288ZM171.427 28.192C170.067 28.192 168.843 27.912 167.755 27.352C166.683 26.776 165.843 25.984 165.235 24.976C164.627 23.968 164.323 22.824 164.323 21.544C164.323 20.264 164.627 19.12 165.235 18.112C165.843 17.104 166.683 16.32 167.755 15.76C168.843 15.184 170.067 14.896 171.427 14.896C172.787 14.896 174.003 15.184 175.075 15.76C176.147 16.32 176.987 17.104 177.595 18.112C178.203 19.12 178.507 20.264 178.507 21.544C178.507 22.824 178.203 23.968 177.595 24.976C176.987 25.984 176.147 26.776 175.075 27.352C174.003 27.912 172.787 28.192 171.427 28.192ZM171.427 25.12C172.387 25.12 173.171 24.8 173.779 24.16C174.403 23.504 174.715 22.632 174.715 21.544C174.715 20.456 174.403 19.592 173.779 18.952C173.171 18.296 172.387 17.968 171.427 17.968C170.467 17.968 169.675 18.296 169.051 18.952C168.427 19.592 168.115 20.456 168.115 21.544C168.115 22.632 168.427 23.504 169.051 24.16C169.675 24.8 170.467 25.12 171.427 25.12Z" fill="#FFFFFF"/>
<path d="M20.8333 36.45L33.8167 28.95C34.071 28.8032 34.282 28.5917 34.4284 28.3371C34.5747 28.0825 34.6512 27.7937 34.65 27.5L34.65 12.5C34.6512 12.2063 34.5747 11.9175 34.4284 11.6629C34.282 11.4083 34.071 11.1968 33.8167 11.05L20.8333 3.55C20.58 3.40372 20.2926 3.32671 20 3.32671C19.7075 3.32671 19.42 3.40372 19.1667 3.55L6.18334 11.05C5.929 11.1968 5.71798 11.4083 5.57164 11.6629C5.4253 11.9175 5.34885 12.2063 5.35001 12.5L5.35001 27.5C5.34884 27.7937 5.4253 28.0825 5.57164 28.3371C5.71798 28.5917 5.929 28.8032 6.18334 28.95L19.1667 36.45C19.42 36.5963 19.7075 36.6733 20 36.6733C20.2926 36.6733 20.58 36.5963 20.8333 36.45V36.45ZM8.68335 26.45L8.68335 13.4667L20 6.91666L31.3167 13.4667L31.3167 26.5333L20 33.0833L8.68335 26.45Z" fill="#FFFFFF"/>
</svg>
