<svg width="160" height="30" viewBox="0 0 160 30" fill="none" xmlns="http://www.w3.org/2000/svg">
<path d="M0.566284 0.192139L14.2044 11.2106L24.1411 0.578963C24.279 0.431444 24.1733 0.192139 23.9703 0.192139H0.566284V0.192139Z" fill="#2397D4"/>
<path d="M0.566284 29.9357L14.2044 18.9172L24.1411 29.5489C24.279 29.6964 24.1733 29.9357 23.9703 29.9357H0.566284Z" fill="#2397D4"/>
<path d="M0.716027 0.249396L18.8276 14.8684C18.9527 14.9694 18.9527 15.1585 18.8276 15.2594L0.716027 29.8785C0.549512 30.0129 0.299988 29.8956 0.299988 29.6829V0.444911C0.299988 0.232253 0.549512 0.114991 0.716027 0.249396Z" fill="#2F4A75"/>
<path d="M75.6288 21.3004C75.6288 26.3957 71.4672 29.9199 66.276 29.9199H53.7776C53.6431 29.9199 53.534 29.812 53.534 29.6789V0.434029C53.534 0.303336 53.6411 0.197388 53.7731 0.197388H65.3749C70.4376 0.197388 74.5134 3.59433 74.5134 8.56224C74.5134 11.1098 73.4407 13.1055 71.6819 14.5067C74.0845 15.8655 75.6288 18.2008 75.6288 21.3004ZM59.4544 5.87532V11.9666C59.4544 12.1031 59.5663 12.2138 59.7043 12.2138H65.3749C67.3269 12.2138 68.7506 10.6454 68.5789 8.61489C68.4368 6.93347 66.9471 5.6748 65.2423 5.6748L59.6571 5.6748C59.5452 5.6748 59.4544 5.76457 59.4544 5.87532ZM69.7422 20.6414C69.6267 18.8203 68.028 17.4364 66.1843 17.4364L59.4544 17.4364V24.4425H66.276C68.3828 24.4425 69.8805 22.8205 69.7422 20.6414ZM96.8337 24.5699H85.1857C85.0895 24.5699 85.0041 24.6308 84.9737 24.7211L83.2736 29.7687C83.2432 29.859 83.1578 29.9199 83.0616 29.9199H77.1453C76.9914 29.9199 76.8835 29.7695 76.9344 29.6257L87.2892 0.345505C87.3206 0.256791 87.4052 0.197389 87.5001 0.197389H94.5195C94.6143 0.197389 94.6989 0.256662 94.7303 0.345239L105.128 29.6254C105.179 29.7693 105.071 29.9199 104.917 29.9199H98.9578C98.8616 29.9199 98.7762 29.859 98.7457 29.7687L97.0457 24.7211C97.0153 24.6308 96.9298 24.5699 96.8337 24.5699ZM95.0508 18.8009L91.2431 7.57335C91.1749 7.37228 90.8875 7.37228 90.8193 7.57334L87.0113 18.8009C86.9626 18.9442 87.0704 19.0924 87.2231 19.0924H94.839C94.9917 19.0924 95.0994 18.9442 95.0508 18.8009ZM131.446 0.436647V29.6807C131.446 29.8128 131.338 29.9199 131.204 29.9199H127.067C126.988 29.9199 126.915 29.8819 126.869 29.818L114.071 11.7468V29.6807C114.071 29.8128 113.962 29.9199 113.829 29.9199H108.392C108.258 29.9199 108.15 29.8128 108.15 29.6807V0.436647C108.15 0.304508 108.258 0.197388 108.392 0.197388H112.529C112.608 0.197388 112.682 0.235339 112.727 0.299103L125.526 18.3281V0.436647C125.526 0.304508 125.634 0.197388 125.767 0.197388H131.204C131.338 0.197388 131.446 0.304508 131.446 0.436647ZM153.082 29.7987L147.536 20.5968C147.439 20.4352 147.202 20.4352 147.105 20.5968L141.559 29.7987C141.513 29.8739 141.431 29.9199 141.343 29.9199H135.235C135.04 29.9199 134.919 29.7098 135.019 29.5441L143.897 14.8037C143.945 14.7253 143.945 14.6276 143.897 14.5493L135.491 0.573107C135.391 0.407417 135.512 0.197388 135.706 0.197388H141.815C141.903 0.197388 141.985 0.243522 142.03 0.318815L147.105 8.75535C147.202 8.91726 147.439 8.91726 147.536 8.75535L152.61 0.318821C152.655 0.243524 152.737 0.197388 152.826 0.197388H158.934C159.128 0.197388 159.249 0.407697 159.149 0.573383L150.744 14.5066C150.696 14.5851 150.696 14.683 150.744 14.7615L159.664 29.5439C159.764 29.7096 159.643 29.9199 159.448 29.9199H153.298C153.209 29.9199 153.127 29.8739 153.082 29.7987ZM38.0876 24.2999C37.3146 24.2006 36.7155 23.5538 36.7155 22.7618V17.8782C36.7155 17.7515 36.8193 17.6488 36.9472 17.6488H47.8529C47.981 17.6488 48.0848 17.5461 48.0848 17.4194V12.3584C48.0848 12.2317 47.981 12.129 47.8529 12.129H36.9472C36.8193 12.129 36.7155 12.0262 36.7155 11.8995V6.03174C36.7155 5.90502 36.8193 5.8023 36.9472 5.8023H48.9256C49.0537 5.8023 49.1575 5.69957 49.1575 5.57288V0.426811C49.1575 0.300113 49.0537 0.19739 48.9256 0.19739H31.0268C30.8988 0.19739 30.795 0.300113 30.795 0.426811V18.3325V24.3761C30.795 27.4437 33.3077 29.9305 36.4073 29.9305H49.3717V24.2999H38.0876V24.2999Z" fill="#2F4A75"/>
</svg>
