<svg width="168" height="30" viewBox="0 0 168 30" fill="none" xmlns="http://www.w3.org/2000/svg">
<path d="M7.94385 10.1866C13.4611 8.93419 18.9783 12.3019 20.2386 17.6736C20.3631 18.2426 20.4433 18.8336 20.4793 19.427L20.4907 19.6497L17.354 20.3455L15.7296 20.7073L5.67534 22.9617C6.93562 24.743 9.23214 25.6614 11.5007 25.1605C12.8314 24.8636 14.0041 24.0956 14.789 23.0089L14.8614 22.906L19.6225 24.0193C18.3342 26.7747 15.8136 28.9457 12.5649 29.6693C7.04765 30.9218 1.55841 27.5819 0.270118 22.1824C-1.01817 16.7829 2.42661 11.4391 7.94385 10.1866ZM155.453 10.2145C160.97 8.96202 166.488 12.3297 167.748 17.7014C167.872 18.2704 167.953 18.8614 167.989 19.4549L168 19.6775L164.863 20.3733L163.239 20.7351L153.185 22.9895C154.445 24.7708 156.741 25.6893 159.01 25.1883C160.341 24.8914 161.513 24.1235 162.298 23.0367L162.371 22.9339L167.132 24.0193C165.844 26.7747 163.323 28.9457 160.074 29.6693C154.557 30.9218 149.04 27.554 147.779 22.1824C146.491 16.8108 149.936 11.4669 155.453 10.2145ZM46.4806 10.2145C51.9978 8.96202 57.487 12.3297 58.7753 17.7014C58.8998 18.2704 58.98 18.8614 59.016 19.4549L59.0274 19.6775L55.8907 20.3733L54.2663 20.7351L44.212 22.9895C45.5283 24.8265 47.8249 25.6893 50.0374 25.1883C51.4097 24.8821 52.6139 24.075 53.3981 22.9339L56.7641 23.689C57.5483 23.8673 58.1592 24.0094 58.1592 24.0193C56.8709 26.7747 54.3503 28.9457 51.1016 29.6693C45.5844 30.9218 40.0671 27.554 38.8068 22.1824C37.5185 16.8108 40.9633 11.4669 46.4806 10.2145ZM98.7404 0V11.6896C100.309 10.4371 102.157 9.90832 104.202 9.90832C109.971 9.90832 114.592 14.3337 114.592 19.8723C114.592 25.3831 109.971 29.892 104.202 29.892C102.185 29.892 100.309 29.3632 98.7404 28.1107V29.3632H93.6712V1.14113L98.7404 0ZM121.229 10.2423V11.9401C122.765 10.85 124.247 10.4537 126.753 10.307L126.915 10.298V15.1965C122.007 15.3618 121.244 17.0002 121.23 19.8955L121.229 29.3632H116.16V10.2423H121.229ZM88.126 2.39358V10.2423H92.0749V15.0016H88.126V29.3632H82.8608V15.0016H79.7521V10.2423H82.8608V3.56254L88.126 2.39358ZM70.65 9.88049C74.935 9.88049 78.6598 12.3297 78.6598 18.3137V29.3353H73.5627V19.1487C73.5627 15.5249 71.6302 14.6751 69.6571 14.6409L69.5298 14.6398L69.4024 14.6408C67.4293 14.6728 65.4969 15.4686 65.4969 19.0652V29.3632H60.4277V10.2423H65.4969V11.6618L65.8729 11.3931C66.9264 10.6537 68.2547 9.88049 70.65 9.88049ZM24.4676 10.2423L29.4527 23.2122L34.4938 10.2423H40.0111L32.1133 29.3632H26.8481L18.9503 10.2423H24.4676ZM133.748 10.2423V29.3632H128.679V10.2423H133.748ZM143.971 3.56254V10.2423H147.919V15.0851H143.971V29.3353H138.705V15.113H135.597V10.2423H138.705V3.56254H143.971ZM104.174 14.5007C101.177 14.5007 98.7404 16.8664 98.6283 19.6218V20.095C98.7684 22.8782 101.205 25.2161 104.174 25.2161C107.198 25.2161 109.691 22.7669 109.691 19.8445C109.691 16.9777 107.198 14.5007 104.174 14.5007ZM152.288 19.0652L162.315 16.8108C160.998 15.0016 158.702 14.1388 156.517 14.6398C154.285 15.1327 152.704 16.8919 152.307 18.9631L152.288 19.0652L162.315 16.8108L152.288 19.0652ZM43.3158 19.0652L53.3421 16.8108C52.0818 15.0573 49.8133 14.1388 47.5448 14.6398C45.3123 15.1329 43.7036 16.8928 43.3328 18.9647L43.3158 19.0652L53.3421 16.8108L43.3158 19.0652ZM4.77914 19.0652L14.8054 16.8108C13.5451 15.0573 11.2766 14.1388 9.00809 14.6398C6.77559 15.1329 5.16694 16.8659 4.79611 18.9634L4.77914 19.0652L14.8054 16.8108L4.77914 19.0652ZM131.228 0.445318C133.048 0.445318 134.392 1.78127 134.392 3.53471C134.392 5.31598 133.02 6.67977 131.228 6.67977C129.407 6.67977 128.007 5.31598 128.007 3.53471C128.007 1.75344 129.407 0.445318 131.228 0.445318Z" fill="#F05537"/>
</svg>
