<svg width="115" height="30" viewBox="0 0 115 30" fill="none" xmlns="http://www.w3.org/2000/svg">
<path d="M38.0018 23.4889C38.0018 28.2831 42.0405 29.3056 42.0405 29.3056H51.2721V23.4889H38.0018Z" fill="#6BBFA4"/>
<path d="M55.5482 0.730957H61.2433V29.4291H55.5482V0.730957Z" fill="#73BE88"/>
<path d="M86.5694 29.4291L72.0769 10.2627L72.0565 29.4291H66.3617V0.730957H71.6891L86.2022 19.8971V0.730957H91.9175V29.4291H86.5694Z" fill="#A3CC69"/>
<path d="M109.325 6.52696C109.325 1.73272 105.286 0.710205 105.286 0.710205H96.0549V6.52696H109.325Z" fill="#ECE23C"/>
<path d="M38.0018 23.4889L37.9969 23.6422V0.709236H32.3789V24.1955C32.3789 27.0184 34.3987 29.3063 37.9969 29.3063L41.5486 29.3056H42.0405C42.0405 29.3056 38.0018 28.2831 38.0018 23.4889ZM109.325 6.5269L109.33 6.37359V29.3063H114.948V5.82023C114.948 2.9974 112.928 0.709236 109.33 0.709236L105.778 0.710137H105.286C105.286 0.710137 109.325 1.73265 109.325 6.5269ZM25.9232 4.60501L21.8204 8.64306C20.1875 6.75742 17.8604 5.63 14.9211 5.63C9.69564 5.63 5.89907 9.48368 5.89907 15.0798C5.89907 20.922 9.85906 24.6118 14.8191 24.6118C19.4935 24.6118 22.1878 22.3774 22.9431 18.2777H15.6765V13.5015H28.8217C28.8829 14.0548 28.9033 14.5674 28.9033 15.1208C28.9033 23.8124 23.0453 29.9416 14.9415 29.9416C7.02172 29.9416 0 24.3453 0 15.0798C0 6.40893 6.30729 0.197754 15.0845 0.197754C19.6567 0.197754 23.3717 1.81707 25.9232 4.60501Z" fill="#72736D"/>
</svg>
