<svg width="149" height="30" viewBox="0 0 149 30" fill="none" xmlns="http://www.w3.org/2000/svg">
<path d="M40.9742 5.64695L40.921 5.66488V13.6782H33.4002V5.66488L33.347 5.64695C32.2295 5.41391 31.1298 5.41391 30.03 5.64695L29.9768 5.66488V24.0937L30.03 24.1116C30.5799 24.2192 31.1298 24.2909 31.6796 24.2909C32.2295 24.2909 32.7794 24.2371 33.347 24.1116L33.4002 24.0937V16.6182H40.921V24.0937L40.9742 24.1116C42.074 24.3446 43.1914 24.3446 44.2912 24.1116L44.3444 24.0937V5.66488L44.2912 5.64695C43.1737 5.43183 42.074 5.43183 40.9742 5.64695ZM52.6279 10.8278C48.6902 10.8278 46.3488 13.3376 46.3488 17.5504C46.3488 19.7374 46.8454 21.4764 47.8387 22.6775C48.9207 23.9861 50.5349 24.6494 52.6811 24.6494C56.3174 24.6494 58.1799 22.4623 58.4104 20.2932V20.2394L58.3572 20.2215C57.4349 19.9167 56.5835 19.845 55.5724 19.9884H55.5369V20.0243C55.3241 21.315 54.2598 22.0859 52.7166 22.0859C50.5526 22.0859 49.4884 20.8848 49.4529 18.4109H58.6056V18.3571C58.8716 15.919 58.3927 13.9471 57.222 12.6026C56.14 11.4553 54.5614 10.8278 52.6279 10.8278ZM52.5925 13.2121C53.4971 13.2121 54.2598 13.4989 54.7742 14.0546C55.3063 14.6283 55.5724 15.4888 55.5192 16.5106H49.4529C49.5061 14.4132 50.659 13.2121 52.5925 13.2121ZM60.8228 5.64695L60.7696 5.66488V24.0937L60.8228 24.1116C61.3372 24.2192 61.8516 24.2909 62.3837 24.2909C62.8981 24.2909 63.4302 24.2371 63.9446 24.1116L63.9978 24.0937V5.66488L63.9446 5.64695C62.9158 5.41391 61.8693 5.43183 60.8228 5.64695ZM72.9731 10.8278C71.6073 10.8278 70.1706 11.3656 68.8048 12.3874L68.6097 11.4194L68.5742 11.4015C67.7937 11.1684 67.1552 11.1684 66.3924 11.4015L66.357 11.4194V29.7586L66.4102 29.7765C66.9246 29.884 67.439 29.9557 67.9711 29.9557C68.5032 29.9557 69.0176 29.902 69.532 29.7765L69.5852 29.7586V23.6276C70.6672 24.3267 71.8202 24.6494 73.1151 24.6494C76.6981 24.6494 78.8444 22.0859 78.8444 17.7655C78.8266 13.3734 76.6981 10.8278 72.9731 10.8278ZM69.532 14.467C70.4899 13.8037 71.3767 13.4989 72.3346 13.4989C74.5163 13.4989 75.7048 15.0227 75.7048 17.8193C75.7048 20.5621 74.5341 22.0142 72.2991 22.0142C71.3413 22.0142 70.4367 21.7094 69.532 21.064V14.467ZM92.5202 14.1801C91.9703 13.965 91.4736 13.7857 90.9947 13.6244C88.5114 12.7281 87.0215 12.1902 86.986 10.8278C86.9683 10.2004 87.1634 9.66257 87.5891 9.2144C88.2099 8.56903 89.2564 8.22842 90.5335 8.22842C91.7929 8.22842 92.7685 8.56903 93.3538 9.19647C93.8505 9.73427 94.0634 10.4693 94.0101 11.3835V11.4373L94.0634 11.4553C95.1454 11.6704 96.2274 11.6524 97.3981 11.3835L97.4513 11.3656V11.3118C97.5222 9.77013 97.061 8.42561 96.1209 7.42171C94.9502 6.16683 93.07 5.50354 90.6932 5.48561H90.6222C86.2055 5.48561 83.5449 7.47549 83.5094 10.8099C83.4916 14.1263 86.5071 15.2378 88.3163 15.8832L88.5824 15.9907C89.1855 16.2059 89.7531 16.4031 90.2497 16.5823C92.6976 17.4428 94.1698 17.9627 94.223 19.2714C94.2407 19.9526 94.0456 20.5083 93.6376 20.9385C93.0523 21.5481 92.0235 21.8528 90.6577 21.8349C89.15 21.8349 87.997 21.4405 87.3407 20.7234C86.8618 20.1856 86.6667 19.5044 86.7377 18.6798V18.626L86.6844 18.6081C85.5847 18.3929 84.4672 18.4109 83.3675 18.6618L83.332 18.6798V18.7335C83.2433 20.2215 83.6868 21.5481 84.6446 22.5699C85.9217 23.9503 88.0148 24.6673 90.7109 24.6494C93.3538 24.6494 97.6996 23.9323 97.7351 19.2714C97.6819 16.17 95.0567 15.1661 92.5202 14.1801ZM105.664 13.4989C107.846 13.4989 108.36 14.9331 108.466 15.7756V15.8294H108.52C109.531 15.9907 110.489 15.919 111.411 15.6501L111.464 15.6322V15.5784C111.375 14.2877 110.826 13.1224 109.921 12.2799C108.892 11.3298 107.42 10.8099 105.682 10.8099C101.531 10.8099 99.2428 13.2659 99.2428 17.7296C99.2428 22.1755 101.513 24.6315 105.628 24.6315C107.402 24.6315 108.892 24.1116 109.939 23.1256C110.808 22.301 111.34 21.1895 111.446 19.9884V19.9346L111.393 19.9167C110.524 19.612 109.566 19.5582 108.52 19.7374H108.484V19.7733C108.2 21.7811 106.267 21.9245 105.682 21.9245C103.447 21.9245 102.4 20.58 102.4 17.6938C102.382 14.8434 103.429 13.4989 105.664 13.4989ZM119.322 10.8278C115.242 10.8278 112.99 13.2838 112.99 17.7476C112.99 22.1934 115.242 24.6494 119.322 24.6494C123.402 24.6494 125.654 22.1934 125.654 17.7476C125.654 13.2838 123.402 10.8278 119.322 10.8278ZM122.568 17.7655C122.568 20.6159 121.504 21.9962 119.322 21.9962C117.14 21.9962 116.076 20.6159 116.076 17.7655C116.076 14.8613 117.105 13.4989 119.322 13.4989C121.504 13.4989 122.568 14.8972 122.568 17.7655ZM135.871 11.4194L135.818 11.4373V20.6159C134.789 21.5122 133.849 21.9066 132.767 21.9066C131.242 21.9066 130.585 21.0282 130.585 18.9487V11.4194L130.532 11.4015C129.503 11.1505 128.457 11.1505 127.41 11.4015L127.357 11.4194V19.6837C127.357 22.8209 129.024 24.6315 131.951 24.6315C133.512 24.6315 134.878 24.022 136.35 22.6595L136.652 24.0937L136.687 24.1116C137.432 24.3088 138.213 24.3088 138.958 24.1116L139.011 24.0937V11.4194L138.958 11.4015C137.964 11.1505 136.918 11.1505 135.871 11.4194ZM148.838 21.6377L148.82 21.5839L148.767 21.6018C147.525 21.8887 146.798 21.8707 146.372 21.5301C146.017 21.2433 145.858 20.7414 145.858 19.9526V14.0726H148.376L148.394 14.0188C148.572 13.1583 148.572 12.2799 148.394 11.4015L148.376 11.3477H145.858V7.86988L145.804 7.85196C144.776 7.61891 143.729 7.61891 142.7 7.85196L142.647 7.86988L142.665 11.3477H141.068L141.051 11.4015C140.856 12.262 140.856 13.1583 141.051 14.0188L141.068 14.0726H142.665L142.683 19.7195C142.683 21.2971 142.771 22.8926 143.853 23.8068C144.439 24.2909 145.29 24.5418 146.39 24.5418C147.064 24.5418 147.844 24.4522 148.749 24.2729H148.784L148.802 24.2371C149.05 23.3945 149.068 22.5161 148.838 21.6377Z" fill="#2A3B47"/>
<path d="M1.75604 17.4249L10.3766 8.71244C11.4941 7.60098 12.1858 6.04134 12.1858 4.33829C12.1858 2.65317 11.5118 1.11146 10.4298 0L1.80925 8.71244C0.691773 9.82391 0 11.3835 0 13.0866C0 14.7896 0.674035 16.3134 1.75604 17.4249ZM22.6334 12.3337L14.0128 21.0461C12.8954 22.1576 12.2036 23.7172 12.2036 25.4203C12.2036 27.1054 12.8776 28.6471 13.9596 29.7586L22.5802 21.0461C23.6977 19.9346 24.3894 18.375 24.3894 16.672C24.3894 14.9689 23.7154 13.4451 22.6334 12.3337ZM22.5802 8.73037C23.6977 7.61891 24.3894 6.05927 24.3894 4.35622C24.3894 2.6711 23.7154 1.12939 22.6334 0.0179268L1.80925 21.0461C0.691773 22.1755 0 23.7172 0 25.4382C0 27.1233 0.674035 28.665 1.75604 29.7765L22.5802 8.73037Z" fill="#1292EE"/>
</svg>
