<svg width="145" height="30" viewBox="0 0 145 30" fill="none" xmlns="http://www.w3.org/2000/svg">
<g clip-path="url(#clip0_510:34)">
<path d="M26.1634 16.0396L26.1826 16.0412L28.1868 16.2525C28.3275 16.2678 28.4567 16.3371 28.5481 16.4454L28.5629 16.4638L28.5439 16.4734C28.6375 16.5927 28.6789 16.7453 28.6581 16.8961C28.2202 20.4082 26.5702 23.6525 23.9977 26.0596C21.3283 28.5573 17.8222 29.945 14.1814 29.945C12.4132 29.9479 10.66 29.6194 9.01102 28.9766L8.92118 28.9412C8.78621 28.8909 8.67777 28.7873 8.62036 28.655L8.61172 28.6339C8.55551 28.5021 8.55238 28.3538 8.60235 28.2202L9.39345 26.273C9.50064 25.9977 9.80443 25.8591 10.0788 25.9567L10.097 25.9635C14.1406 27.5387 18.7204 26.6515 21.8983 23.6775C23.921 21.8024 25.2253 19.2692 25.5828 16.5214C25.6207 16.2377 25.8647 16.0313 26.1443 16.0388L26.1634 16.0396ZM73.4971 7.77577C75.2061 7.77577 76.5425 8.30179 77.396 9.31201L77.4246 9.34624V8.49136C77.436 8.25274 77.6192 8.05989 77.853 8.0366L77.872 8.03509H80.1523C80.3869 8.05145 80.5735 8.23775 80.5938 8.47224L80.5951 8.49136V21.2617C80.6688 23.0625 80.1202 24.8331 79.0432 26.271C77.8149 27.779 75.9488 28.5426 73.4971 28.5426C70.0887 28.5426 67.3989 26.367 66.9562 23.2596C66.9343 23.0353 67.0697 22.8267 67.2802 22.7563L67.299 22.7505L69.5269 22.2222C69.5385 22.2196 69.5502 22.2174 69.562 22.2156C69.8065 22.1795 70.0337 22.3502 70.0696 22.5969C70.2731 24.3399 71.758 25.6403 73.4971 25.5985C76.1317 25.5985 77.3711 24.2476 77.3956 21.4245L77.396 21.3385V20.2195C76.4084 21.337 74.9803 21.9544 73.4971 21.9053C69.7078 21.9053 66.9611 18.9372 66.9611 14.8549C66.9264 13.0182 67.5674 11.2335 68.7605 9.84568C69.9722 8.50256 71.6971 7.74883 73.4971 7.77577ZM4.87054 23.3076L4.89879 23.3074L4.92715 23.3076C5.83674 23.3181 6.5691 24.0601 6.57898 24.9744L6.57906 25.003C6.57906 25.0125 6.57895 25.0221 6.57878 25.0315C6.56294 25.9677 5.79796 26.7138 4.87 26.6979C3.94204 26.6819 3.20261 25.9102 3.21828 24.974C3.2338 24.0569 3.9682 23.3222 4.87054 23.3076ZM112.969 7.59808L113.086 7.59895C117.159 7.6557 119.683 10.5163 119.683 15.095C119.683 15.3373 119.67 15.5794 119.645 15.8202C119.624 16.0418 119.445 16.2126 119.226 16.2231L119.207 16.2236H109.524C109.584 18.2753 111.265 19.8987 113.3 19.8689C114.877 19.9689 116.314 18.9572 116.765 17.4292C116.848 17.2098 117.082 17.0918 117.304 17.1547L117.322 17.1602L119.255 17.847C119.361 17.8816 119.449 17.958 119.498 18.0584L119.507 18.0776C119.56 18.1833 119.569 18.3062 119.531 18.4185C118.633 21.1 116.104 22.8743 113.3 22.789C111.461 22.8074 109.692 22.0828 108.387 20.7766C106.962 19.2646 106.202 17.2372 106.278 15.1527C106.278 10.4694 109.614 7.65476 112.872 7.59893L112.969 7.59808ZM58.1779 7.59809H58.1826C62.3291 7.59809 64.9045 10.4701 64.9045 15.095C64.9042 15.3373 64.8915 15.5794 64.8664 15.8202C64.8472 16.043 64.6664 16.215 64.4468 16.2233L64.4284 16.2236H54.7456C54.8053 18.281 56.4951 19.9067 58.5349 19.869C60.1128 19.9707 61.5508 18.9584 62.0006 17.4292C62.0812 17.208 62.3174 17.0892 62.5396 17.1545L62.5575 17.1602L64.4903 17.847C64.6033 17.8838 64.6952 17.9677 64.7426 18.0776C64.7878 18.1866 64.7878 18.3094 64.7426 18.4185C63.8456 21.0983 61.3183 22.8722 58.5159 22.789C56.6743 22.81 54.9012 22.0852 53.5935 20.7766C52.171 19.2634 51.4111 17.2369 51.4846 15.1527C51.4846 10.4221 54.8884 7.59809 58.1779 7.59809ZM43.5156 7.59323C45.3769 7.59323 46.8813 8.0495 47.9952 8.94755C48.7484 9.55317 49.3067 10.3704 49.5995 11.2961L49.6004 11.2998C49.6386 11.4594 49.5457 11.6202 49.3914 11.6665L49.3758 11.6707L47.0669 12.4392C46.9645 12.4801 46.8504 12.4801 46.748 12.4392C46.6606 12.398 46.5947 12.321 46.5671 12.2279L46.5548 12.182C46.3445 11.4236 45.657 10.2059 43.5156 10.2059C41.9923 10.2059 41.0783 11.0896 41.0783 11.9445L41.0786 11.9784C41.0901 12.5342 41.3896 13.232 42.7035 13.4973L42.7444 13.5053L45.2865 13.9856C48.0954 14.5562 49.7145 16.0964 49.7466 18.2428L49.747 18.308L49.7375 18.2697L49.7369 18.3348C49.6961 20.4864 47.6332 22.7505 43.8345 22.7505C39.3835 22.7505 37.6364 20.2099 37.3127 18.7115C37.2916 18.5547 37.3864 18.4067 37.5346 18.3606L37.5507 18.3561L39.931 17.6069C39.9735 17.5999 40.017 17.5999 40.0595 17.6069C40.12 17.6058 40.1799 17.6187 40.2344 17.6446L40.2546 17.6549C40.3421 17.6971 40.4066 17.7763 40.4308 17.871C40.7308 19.3119 42.0208 20.1715 43.8774 20.1715C45.6055 20.1715 46.3909 19.259 46.3909 18.4329C46.3909 17.6159 45.7064 17.0103 44.5263 16.7602L44.4868 16.752L41.8161 16.2285C39.3264 15.753 37.7745 14.1921 37.7745 12.1606C37.7745 9.68719 40.407 7.59323 43.5156 7.59323ZM139.525 3.59262H141.606C141.851 3.60748 142.044 3.80833 142.053 4.05433L142.053 4.07286V8.01589H144.557C144.8 8.03316 144.99 8.23312 145 8.47727L145 8.49614V10.5901L145 10.6083C144.993 10.8431 144.808 11.0338 144.575 11.0458L144.557 11.0464H142.053V18.0535C142.053 19.2157 142.51 19.6961 143.685 19.6961C143.923 19.6919 144.161 19.6736 144.397 19.6415L144.486 19.6287C144.615 19.6066 144.748 19.6436 144.847 19.7297C144.937 19.8138 144.991 19.9294 144.999 20.0523L145 20.0755V22.0493C145.002 22.2505 144.872 22.4287 144.681 22.4864C144.132 22.6412 143.566 22.719 142.997 22.7176L142.919 22.7169C140.435 22.7169 138.885 21.1212 138.855 18.5403L138.854 18.4617V11.0752H136.688C136.452 11.0612 136.262 10.8742 136.242 10.6382L136.24 10.6189V8.51533C136.24 8.26716 136.427 8.06063 136.67 8.03655L136.688 8.03509L137.27 8.03501L137.332 8.0339C138.012 8.0142 139.056 7.73625 139.077 6.20542L139.078 6.15719V4.07286C139.077 3.82469 139.264 3.61816 139.507 3.59408L139.525 3.59262ZM99.092 7.59595L99.1465 7.59809H99.1416C101.593 7.59809 104.067 9.32082 104.116 13.0833L104.117 13.1979V22.0926C104.106 22.3312 103.922 22.524 103.688 22.5473L103.669 22.5489H101.389C101.153 22.5347 100.964 22.3479 100.943 22.1118L100.941 22.0926V13.4862L100.941 13.4199C100.927 12.3233 100.557 10.5613 98.3186 10.5613C96.6639 10.5613 95.4854 11.8605 95.462 13.7505L95.4616 13.8079V22.0926C95.4505 22.3312 95.2675 22.524 95.0333 22.5473L95.0142 22.5489H92.7059C92.469 22.5347 92.2801 22.3479 92.2598 22.1118L92.2585 22.0926V13.4862L92.2581 13.4199C92.2442 12.3233 91.8747 10.5613 89.635 10.5613C87.9149 10.5613 86.7501 11.851 86.727 13.7781L86.7267 13.8367V22.0926C86.7147 22.3312 86.5317 22.524 86.2982 22.5473L86.2792 22.5489H83.9987C83.7642 22.5325 83.5776 22.3461 83.5574 22.1117L83.5562 22.0926V8.46253C83.5673 8.2256 83.7479 8.03341 83.9798 8.00795L83.9987 8.00625H86.1935C86.4296 8.02029 86.6193 8.20723 86.6396 8.44328L86.6409 8.46253V9.2838C87.6281 8.19184 89.0317 7.57832 90.4965 7.59809C92.1932 7.54792 93.7764 8.45289 94.6051 9.94651C95.5921 8.42509 97.2937 7.53503 99.092 7.59595ZM133.237 9.29336C134.11 10.4545 134.561 11.8826 134.514 13.3381L134.512 13.3997V22.0926C134.501 22.3295 134.32 22.5217 134.088 22.5472L134.069 22.5489H131.761C131.524 22.5347 131.335 22.3479 131.314 22.1118L131.313 22.0926V13.8656C131.313 11.7139 130.309 10.6189 128.404 10.6189C127.563 10.5915 126.759 10.9695 126.238 11.6371C125.735 12.3699 125.474 13.2444 125.495 14.1349L125.496 14.1873V22.0926C125.484 22.3312 125.301 22.524 125.068 22.5473L125.049 22.5489H122.744C122.508 22.5347 122.319 22.3479 122.298 22.1118L122.297 22.0926V8.45289C122.308 8.21427 122.492 8.0215 122.725 7.99814L122.744 7.99662H124.996C125.231 8.01298 125.417 8.19936 125.438 8.43378L125.439 8.45289V9.41346C126.405 8.23287 127.854 7.5639 129.371 7.59809C130.849 7.53433 132.275 8.15947 133.237 9.29336ZM0.552224 16.6223H16.9426C17.2438 16.6249 17.4871 16.8682 17.4947 17.1697L17.4949 17.1891V19.2591C17.4974 19.5629 17.2603 19.8125 16.9617 19.8252L16.9425 19.8257H0.552224C0.250974 19.8231 0.00773216 19.5797 0 19.2783V19.259V17.189V17.1697C0.00757084 16.8748 0.240586 16.6355 0.532667 16.6228L0.552224 16.6223ZM73.8923 10.6478C71.6454 10.6478 70.2172 12.2615 70.2172 14.8549C70.2172 17.4484 71.6263 19.0572 73.8923 19.0572C76.0535 19.0572 77.5102 17.3667 77.5102 14.8549C77.5102 12.3383 76.0535 10.6478 73.8923 10.6478ZM54.8469 13.4538L54.8408 13.5053H61.615C61.4501 11.6796 60.1746 10.541 58.2645 10.5184L58.2065 10.5181C56.5234 10.4905 55.0901 11.7324 54.8537 13.4031L54.8469 13.4538ZM109.645 13.4538L109.639 13.5053H116.413C116.248 11.6796 114.973 10.541 113.062 10.5184L113.004 10.5181C111.321 10.4905 109.888 11.7324 109.652 13.4031L109.645 13.4538ZM18.9943 0.826227C19.1363 0.877876 19.2513 0.985293 19.3133 1.12401C19.3702 1.26405 19.3702 1.42105 19.3133 1.56101L18.5992 3.48215C18.5003 3.767 18.1916 3.91734 17.909 3.81832C14.1681 2.50132 10.0171 3.24961 6.95985 5.79219C5.05453 7.40113 3.70166 9.57623 3.09434 12.0069C3.03147 12.2523 2.8124 12.424 2.56116 12.4248H2.43738L0.476044 11.9493C0.329808 11.9146 0.204229 11.8208 0.128539 11.6899H0.118986C0.0396211 11.5591 0.0172488 11.401 0.057176 11.2529C0.836042 8.14143 2.5788 5.36194 5.03183 3.3188C8.93245 0.0790884 14.2286 -0.866409 18.9943 0.826227ZM11.7346 9.12531H28.1249C28.4187 9.12773 28.6588 9.35955 28.6763 9.65312L28.6772 9.67278V11.7428C28.6797 12.0467 28.4428 12.2963 28.1441 12.309L28.1249 12.3095H11.7346C11.4353 12.3043 11.1949 12.0619 11.1873 11.7624L11.1871 11.7428V9.69197C11.1845 9.39004 11.4185 9.14137 11.7152 9.12599L11.7346 9.12531ZM23.1127 2.8097L23.141 2.80948L23.1693 2.80973C24.0789 2.82024 24.8113 3.56225 24.8211 4.47646L24.8212 4.50508C24.8212 4.51464 24.8211 4.52419 24.8209 4.53367C24.8052 5.46985 24.0401 6.21584 23.1122 6.19994C22.1842 6.18404 21.4448 5.41219 21.4605 4.47609C21.476 3.55892 22.2104 2.82436 23.1127 2.8097Z" fill="#4FB58B"/>
</g>
<defs>
<clipPath id="clip0_510:34">
<rect width="145" height="30" fill="white"/>
</clipPath>
</defs>
</svg>
