<svg width="171" height="30" viewBox="0 0 171 30" fill="none" xmlns="http://www.w3.org/2000/svg">
<path d="M59.1532 16.5024C59.8642 14.9137 61.3545 13.8321 63.3192 13.8321C65.284 13.8321 66.7404 14.7446 67.3501 16.5024H59.1532ZM72.0243 18.5308C72.0243 13.6627 68.4674 9.7753 63.2854 9.7753C58.4078 9.7753 54.4788 13.6964 54.4788 18.5648C54.4788 23.4327 58.1372 27.354 63.4211 27.354C67.0805 27.354 69.7125 25.5922 71.1934 23.0668L67.5128 20.8763C66.732 22.3715 65.2332 23.2975 63.4549 23.2975C61.0161 23.2975 59.492 22.0803 58.9499 20.221H72.0243V18.5308ZM166.495 18.5308C166.495 16.0293 164.666 14.0009 162.16 14.0009C159.586 14.0009 157.621 15.9279 157.621 18.5308C157.621 21.1338 159.586 23.0947 162.16 23.0947C164.666 23.0947 166.495 21.0326 166.495 18.5308ZM153.082 18.5648C153.082 12.5815 157.485 9.7753 161.313 9.7753C163.514 9.7753 165.242 10.5866 166.36 11.7697V2.33822H171V27.0158H166.36V25.1231C165.242 26.4415 163.447 27.354 161.245 27.354C157.655 27.354 153.082 24.5143 153.082 18.5648ZM149.673 7.54082C151.206 7.54082 152.449 6.30054 152.449 4.77041C152.449 3.24029 151.206 2 149.673 2C148.14 2 146.898 3.24029 146.898 4.77041C146.898 6.30054 148.14 7.54082 149.673 7.54082ZM147.353 10.1135H151.993V27.0158H147.353V14.6097L145.669 14.6094L147.353 10.1135ZM134.992 10.1135H139.598V12.8856C140.445 11.1277 141.969 10.1135 144.272 10.1135H146.135L144.453 14.6094H143.188C140.716 14.6094 139.632 15.8942 139.632 19.0379V27.0158H134.992V10.1135ZM108.887 14.6771C108.887 7.6455 114.204 2 121.52 2C125.18 2 128.257 3.31519 130.486 5.41103C131.392 6.26378 132.158 7.2461 132.766 8.3217L128.634 10.8232C127.109 8.01721 124.772 6.56362 121.554 6.56362C117.049 6.56362 113.561 10.2487 113.561 14.6771C113.561 19.207 116.982 22.7902 121.724 22.7902C125.314 22.7902 127.854 20.762 128.735 17.6181H120.979V13.1221H133.816V15.0151C133.816 21.6411 129.074 27.354 121.724 27.354C114.001 27.354 108.887 21.5059 108.887 14.6771ZM103.293 18.5308C103.293 16.0293 101.464 14.0009 98.9577 14.0009C96.3835 14.0009 94.4187 15.9279 94.4187 18.5308C94.4187 21.1338 96.3835 23.0947 98.9577 23.0947C101.464 23.0947 103.293 21.0326 103.293 18.5308ZM89.88 18.5648C89.88 12.5815 94.2831 9.7753 98.1107 9.7753C100.312 9.7753 102.04 10.5866 103.158 11.7697V2.33822H107.798V27.0158H103.158V25.1231C102.04 26.4415 100.245 27.354 98.0431 27.354C94.4527 27.354 89.88 24.5143 89.88 18.5648ZM73.109 10.1135H77.7157V12.0065C78.7995 10.6204 80.4594 9.7753 82.3899 9.7753C86.3865 9.7753 88.7915 12.3445 88.7915 16.7053V27.0158H84.0834V17.3138C84.0834 15.0488 83.0334 13.7304 80.9675 13.7304C79.206 13.7304 77.7495 14.9474 77.7495 17.7869V27.0158H73.109V10.1135ZM35.2209 22.9256L39.5229 19.5448C40.7421 21.6411 42.6728 22.8579 44.8741 22.8579C47.2793 22.8579 48.5666 21.3031 48.5666 19.6125C48.5666 17.5843 46.0935 16.9423 43.4517 16.1305C40.1326 15.1165 36.4404 13.8321 36.4404 9.09909C36.4404 5.14399 39.8956 2 44.6711 2C48.702 2 51.0051 3.52128 53.0037 5.58362L49.1082 8.52454C48.0923 7.00349 46.6358 6.19191 44.7049 6.19191C42.5033 6.19191 41.3182 7.3752 41.3182 8.93022C41.3182 10.8232 43.689 11.4659 46.3308 12.3445C49.6844 13.4261 53.4778 14.9137 53.4778 19.6467C53.4778 23.5678 50.3614 27.354 44.9081 27.354C40.4374 27.354 37.4568 25.4613 35.2209 22.9256Z" fill="#212F38"/>
<path d="M29.6698 0V19.7413H19.7799V29.6115H0.000233067L0 9.87044H9.88995V0H29.6698Z" fill="#9DD6E3"/>
<path d="M0.000244141 29.6115H9.89019V19.7408H0.000244141V29.6115Z" fill="#3F72AB"/>
<path d="M19.7799 19.7414H29.6699V9.87048H19.7799V19.7414Z" fill="#00A9D1"/>
<path d="M9.88989 9.87067H19.7798V0H9.88989V9.87067Z" fill="#00A9D1"/>
<path d="M9.88989 19.7412H19.7798V9.87048H9.88989V19.7412Z" fill="#2191C4"/>
<path d="M19.7799 9.87067H29.6699V0H19.7799V9.87067Z" fill="#3F72AB"/>
</svg>
