<svg width="148" height="30" viewBox="0 0 148 30" fill="none" xmlns="http://www.w3.org/2000/svg">
<path d="M14.6214 0C22.7016 0 29.2427 6.65552 29.2427 14.8771C29.2427 23.0986 22.7016 29.7541 14.6214 29.7541C6.54113 29.7541 0 23.0986 0 14.8771C0 6.65552 6.54113 0 14.6214 0ZM16.4353 5.50898C15.8581 5.39713 15.281 5.3412 14.6763 5.3412C9.48189 5.3412 5.30436 9.61975 5.30436 14.8771C5.30436 18.5684 7.36565 21.7843 10.3889 23.3503C10.3064 23.9655 10.6912 24.5807 11.2958 24.8044C11.4332 24.8603 11.5981 24.8883 11.7356 24.8883C11.9554 24.8883 12.1753 24.8324 12.3677 24.7205C12.5876 24.6087 12.7525 24.4409 12.8899 24.2172C12.9357 24.1472 12.9815 24.0773 13.0114 23.9912L13.0273 23.9375L14.0992 20.7216L17.837 9.89939L18.9088 6.68349C18.9363 6.5996 18.9638 6.48774 18.9638 6.37588C18.9913 6.06827 18.9088 5.78863 18.7714 5.53695C18.6065 5.2573 18.3591 5.03359 18.0293 4.92173C17.4247 4.72598 16.7651 4.97766 16.4353 5.50898ZM20.6953 7.63428L19.4035 11.6052C20.0357 12.528 20.3929 13.6746 20.3929 14.8771C20.3929 17.4102 18.8476 19.5367 16.675 20.3756L16.5727 20.414L15.281 24.3849C20.1456 24.0214 23.9658 19.9106 23.9933 14.8771C23.9933 11.9688 22.7016 9.36807 20.6953 7.63428ZM128.651 8.22153C130.658 8.22153 132.499 8.9486 133.818 10.235L131.949 12.3603C131.18 11.4095 130.081 10.8781 128.899 10.8781C128.212 10.8781 127.552 11.0459 126.975 11.3815C126.315 11.745 125.766 12.2764 125.408 13.0034C125.401 13.0174 125.395 13.0332 125.388 13.0498L125.347 13.1529L125.326 13.1992C125.134 13.6187 125.024 14.0941 124.969 14.5415V15.2406C124.969 15.2965 124.996 15.3804 124.996 15.4363L125.024 15.5762C125.024 15.6601 125.051 15.7439 125.079 15.8558C125.134 16.0795 125.188 16.2753 125.271 16.471C125.601 17.31 126.233 18.0091 127.002 18.4006L127.057 18.4285L127.085 18.4565C127.112 18.4845 127.14 18.5124 127.167 18.5124C127.717 18.7921 128.294 18.9319 128.899 18.9319C130.081 18.9319 131.207 18.3726 131.922 17.4498L133.791 19.5191V19.603C132.472 20.8894 130.658 21.5885 128.679 21.5885C124.639 21.5885 121.616 18.7082 121.616 14.905C121.616 11.1019 124.639 8.22153 128.651 8.22153ZM141.404 8.1656C145.032 8.19357 148 11.2696 148 15.0169V15.716H137.968L137.996 15.9397C138.326 17.9252 139.672 18.9878 141.899 18.9878C143.383 18.9878 144.784 18.5124 146.076 17.5896C146.076 17.5616 146.104 17.5616 146.131 17.5896L147.67 19.4912C147.698 19.4912 147.698 19.5191 147.67 19.5471C146.104 20.8055 143.96 21.5326 141.844 21.5326C137.391 21.5326 134.533 18.9039 134.505 14.8491C134.505 13.0034 135.165 11.2976 136.347 10.0951C137.584 8.83675 139.343 8.1656 141.321 8.1656H141.404ZM84.8973 8.1656C88.9374 8.1656 91.9881 11.018 91.9881 14.8491C91.9881 18.6522 88.9374 21.5326 84.8973 21.5326C80.8572 21.5326 77.834 18.6522 77.834 14.8491C77.834 11.0459 80.8847 8.1656 84.8973 8.1656ZM65.5762 2.51679C65.6037 2.51679 65.6312 2.54476 65.6312 2.57272V10.7383L65.9885 10.3468C67.1153 9.00453 68.7094 8.27746 70.4683 8.27746C73.7664 8.27746 76.3224 11.1578 76.3224 14.8211C76.3224 18.5124 73.7939 21.3089 70.4683 21.3089C68.572 21.3089 66.9229 20.5259 65.7961 19.0997L65.4388 18.6802V20.9733C65.4388 21.0013 65.4113 21.0292 65.3838 21.0292H62.4431C62.4156 21.0292 62.3881 21.0013 62.3881 20.9733V2.57272C62.3881 2.54476 62.4156 2.51679 62.4431 2.51679H65.5762ZM97.1825 8.75285C97.21 8.75285 97.2375 8.78082 97.2375 8.80878V15.688C97.2375 16.0795 97.265 16.4431 97.3749 16.7786C97.7322 17.7294 98.7216 18.4006 99.766 18.4006C100.838 18.3726 101.8 17.7015 102.157 16.7507C102.24 16.4151 102.295 16.0516 102.295 15.6601V8.80878C102.295 8.78082 102.322 8.75285 102.349 8.75285H105.483C105.51 8.75285 105.538 8.78082 105.538 8.80878V15.2126C105.428 17.7015 104.713 21.0572 99.766 21.0572C94.9987 21.0572 94.1379 18.4252 94.0019 15.53L93.9944 15.3524V8.80878C93.9944 8.78082 94.0219 8.75285 94.0494 8.75285H97.1825ZM37.5428 8.75285C37.5703 8.75285 37.5978 8.78082 37.5978 8.80878V15.688C37.5978 16.0795 37.6253 16.4431 37.7352 16.7786C38.0925 17.7294 39.0819 18.4006 40.1263 18.4006C41.1981 18.3726 42.1601 17.7015 42.5174 16.7507C42.5998 16.4151 42.6548 16.0516 42.6548 15.6601V8.80878C42.6548 8.78082 42.6823 8.75285 42.7097 8.75285H45.8429C45.8704 8.75285 45.8979 8.78082 45.8979 8.80878V15.2126C45.7879 17.7015 45.0734 21.0572 40.1263 21.0572C35.2617 21.0572 34.4646 18.3167 34.3547 15.3524V8.80878C34.3547 8.78082 34.3547 8.75285 34.4097 8.75285H37.5428ZM113.975 8.75285C118.645 8.75285 119.567 11.2785 119.73 14.1031L119.739 14.28C119.742 14.3391 119.745 14.3983 119.747 14.4576V20.9733L116.586 21.0013C116.559 21.0013 116.531 20.9733 116.531 20.9453V14.0941C116.531 13.7025 116.504 13.339 116.394 13.0034C116.036 12.0527 115.047 11.3815 114.003 11.3815C112.931 11.4095 111.969 12.0806 111.612 13.0314C111.529 13.367 111.474 13.7305 111.474 14.122V20.9733C111.474 21.0013 111.447 21.0292 111.419 21.0292H108.286C108.258 21.0292 108.231 21.0013 108.231 20.9733V8.80878C108.231 8.80878 108.231 8.78082 108.258 8.78082H110.979C110.979 8.78082 111.007 8.78082 111.007 8.80878V9.31214L111.282 9.20028C112.051 8.89268 112.958 8.75285 113.975 8.75285ZM54.143 8.75285C59.0076 8.75285 59.8046 11.4934 59.9146 14.4576V20.9733C59.9146 21.0013 59.8871 21.0292 59.8596 21.0292V21.0013H56.7265C56.699 21.0013 56.6715 20.9733 56.6715 20.9453V14.0941C56.6715 13.7025 56.644 13.339 56.5341 13.0034C56.1768 12.0527 55.1874 11.3815 54.143 11.3815C53.0711 11.4095 52.1092 12.0806 51.7519 13.0314C51.6695 13.367 51.6145 13.7305 51.6145 14.122V20.9733C51.6145 21.0013 51.587 21.0292 51.5595 21.0292H48.4264C48.3989 21.0292 48.3714 21.0013 48.3714 20.9733V8.80878C48.3714 8.80878 48.3714 8.78082 48.3989 8.78082H51.1198C51.1473 8.78082 51.1747 8.78082 51.1747 8.80878V9.31214L51.4496 9.20028C52.2191 8.89268 53.1261 8.75285 54.143 8.75285ZM14.6214 9.00453C14.7533 9.00453 14.9028 9.00453 15.0417 9.01885L15.1435 9.0325L11.5157 19.8268C9.92163 18.7641 8.84977 16.9464 8.84977 14.8771C8.84977 11.6332 11.4332 9.00453 14.6214 9.00453ZM84.8973 10.9341C82.836 10.9341 81.2145 12.6399 81.2145 14.8491C81.2145 17.0862 82.8085 18.7641 84.8973 18.7641C86.9586 18.7641 88.6076 17.0303 88.6076 14.8491C88.6076 12.6679 86.9861 10.9341 84.8973 10.9341ZM69.7812 11.0739C67.6925 11.0739 66.0984 12.6958 66.0984 14.8211C66.0984 16.8905 67.72 18.5124 69.7812 18.5124C71.8425 18.5124 73.4091 16.9185 73.4091 14.7932C73.4091 12.6399 71.87 11.0739 69.7812 11.0739ZM141.321 10.7663C139.81 10.7663 138.71 11.5773 138.243 13.0594C138.188 13.1992 138.216 13.339 138.326 13.4509C138.408 13.5627 138.546 13.6466 138.683 13.6466H143.987C144.125 13.6466 144.262 13.5627 144.345 13.4509C144.427 13.339 144.455 13.1992 144.4 13.0594C143.905 11.5773 142.833 10.7663 141.321 10.7663Z" fill="#303030"/>
</svg>
