<svg width="130" height="30" viewBox="0 0 130 30" fill="none" xmlns="http://www.w3.org/2000/svg">
<g clip-path="url(#clip0_510:18)">
<path d="M90.5435 5.2448C92.9757 5.2448 95.0421 6.14238 96.7424 7.93717C98.4428 9.73196 99.2932 12.0338 99.2937 14.8426C99.2937 17.5516 98.4147 19.8174 96.6567 21.64C94.8988 23.4627 92.8154 24.3738 90.4066 24.3734C89.3794 24.3821 88.3607 24.192 87.4092 23.8141C86.4844 23.441 85.5656 22.8306 84.6527 21.9829V29.8813H80.012V5.71326H84.6529V7.719C85.4365 6.93536 86.3666 6.3055 87.3928 5.86346C88.3883 5.44799 89.4609 5.23745 90.5435 5.2448ZM42.7919 7.09441e-05C46.5285 7.09441e-05 49.924 1.31445 53.1725 4.01077C55.81 6.20034 57.9346 8.93655 59.9892 11.5813C60.0481 11.6571 60.107 11.7329 60.1658 11.8085L60.3419 12.0351C60.3713 12.0728 60.4006 12.1104 60.4299 12.148L60.6055 12.3732L60.7808 12.5973C63.3488 15.8747 65.807 18.735 68.3591 18.735C70.7348 18.7249 72.6539 16.8387 72.6486 14.5188C72.6486 12.2532 70.7243 10.3093 68.3591 10.3093C66.8199 10.3093 65.3151 11.3514 63.7997 12.8966C63.0912 12.0391 62.388 11.1297 61.7299 10.2824C61.3144 9.74768 60.8877 9.19804 60.4488 8.64228C62.6976 6.50045 65.2285 4.98478 68.3585 4.98478C73.7304 4.98478 78.1006 9.3072 78.1012 14.518C78.103 19.7772 73.7449 24.0454 68.3591 24.0593C63.1145 24.0593 59.5521 19.8112 56.1767 15.4836L55.9638 15.2103C55.9283 15.1647 55.8929 15.1191 55.8575 15.0736L55.6451 14.8003C53.7672 12.3833 51.8254 9.88391 49.641 8.0707C47.3889 6.20148 45.2128 5.3238 42.7919 5.3238C39.4267 5.3238 36.3171 7.07688 34.6345 9.92268C32.9519 12.7685 32.9519 16.2746 34.6345 19.1204C36.3171 21.9662 39.4267 23.7193 42.7919 23.7193C45.2128 23.7193 47.3891 22.8489 49.641 20.9798C51.2092 19.6781 52.6522 18.0214 54.0367 16.2972C55.1606 17.7446 56.3065 19.2155 57.5306 20.558C56.2019 22.1566 54.7829 23.6984 53.1725 25.0352C49.924 27.7318 46.5279 29.0443 42.7919 29.0443C37.4676 29.0605 32.5406 26.2962 29.8736 21.7964C27.2066 17.2966 27.2066 11.7478 29.8736 7.24801C32.5406 2.74818 37.4676 -0.0161439 42.7919 7.09441e-05ZM119.458 5.24471C120.539 5.23722 121.611 5.44777 122.605 5.86317C123.626 6.30318 124.55 6.93345 125.325 7.71871V5.71326H130V23.9054H125.325V21.9826C124.412 22.8301 123.497 23.4405 122.58 23.8138C121.633 24.1923 120.618 24.3826 119.595 24.3736C117.189 24.3736 115.108 23.4623 113.352 21.6398C111.597 19.8172 110.719 17.5514 110.718 14.8423C110.718 12.0327 111.567 9.73091 113.266 7.93689C114.966 6.14286 117.029 5.24547 119.458 5.24471ZM4.57554 5.71312L8.32173 16.063L12.3531 5.71312H15.1516L19.1094 15.9464L22.8611 5.71312H27.4671L20.6687 23.9054H17.7054L13.7333 13.5383L9.64027 23.9054H6.71293L0 5.71312H4.57554ZM109.465 5.2448C110.127 5.25841 110.777 5.41852 111.366 5.71312L109.911 9.64209C109.363 9.37437 108.912 9.24075 108.558 9.24122C107.839 9.24122 107.231 9.67581 106.734 10.545C106.237 11.4142 105.989 13.1199 105.99 15.6623L106.006 16.5484V23.9053H101.365L101.366 5.71326H105.373V8.00358C105.744 7.17503 106.343 6.46303 107.103 5.94668C107.8 5.48564 108.623 5.24101 109.465 5.2448ZM89.5671 9.45811L89.5673 9.45826C88.095 9.45826 86.8735 9.94885 85.9028 10.93C84.9322 11.9112 84.447 13.1933 84.4473 14.7762C84.4473 16.3923 84.9325 17.6993 85.9028 18.6973C86.8732 19.6953 88.0947 20.1941 89.5673 20.1936C90.9373 20.2178 92.2512 19.6632 93.1719 18.6723C94.1483 17.6577 94.6363 16.3646 94.6358 14.7927C94.6358 13.2323 94.1564 11.9532 93.1975 10.9554C92.2386 9.95759 91.0285 9.45849 89.5671 9.45811ZM120.411 9.45811V9.45826C118.965 9.45826 117.764 9.9573 116.809 10.9554C115.854 11.9535 115.376 13.2326 115.375 14.7927C115.375 16.364 115.862 17.6572 116.835 18.6723C117.751 19.6626 119.061 20.2174 120.427 20.1936C121.895 20.1936 123.113 19.6949 124.079 18.6973C125.046 17.6998 125.529 16.3928 125.529 14.7762C125.529 13.1929 125.046 11.9108 124.079 10.93C123.112 9.94923 121.89 9.45859 120.411 9.45811Z" fill="#020202"/>
</g>
<defs>
<clipPath id="clip0_510:18">
<rect width="130" height="30" fill="white"/>
</clipPath>
</defs>
</svg>
