<svg width="80" height="80" viewBox="0 0 80 80" fill="none" xmlns="http://www.w3.org/2000/svg">
<rect width="80" height="80" fill="#EA4C89"/>
<path d="M54.4333 31.6334C52.9789 29.1129 50.8858 27.0204 48.3649 25.5667C45.8099 24.0784 43.0216 23.3334 39.9999 23.3334C36.9783 23.3334 34.1899 24.0784 31.6333 25.5667C29.0783 27.055 27.0549 29.0784 25.5666 31.6334C24.0783 34.1884 23.3333 36.9784 23.3333 40C23.3333 43.0217 24.0766 45.8117 25.5666 48.3667C27.0205 50.8876 29.1137 52.9802 31.6349 54.4334C34.1899 55.9217 36.9783 56.6667 39.9999 56.6667C43.0216 56.6667 45.8099 55.9217 48.3666 54.4334C50.8874 52.9797 52.9805 50.8872 54.4349 48.3667C55.9233 45.8117 56.6666 43.0217 56.6666 40C56.6666 36.9784 55.9233 34.1884 54.4333 31.6334ZM39.9999 26.1C43.3333 26.1 46.2866 27.1667 48.8666 29.2984C47.3333 31.255 45.0566 32.865 42.0333 34.1317C40.3633 31.11 38.5533 28.5867 36.5983 26.565C37.7063 26.2587 38.8503 26.1023 39.9999 26.1V26.1ZM29.1833 31.3334C30.402 29.7858 31.944 28.523 33.7016 27.6334C35.7216 29.635 37.5766 32.1334 39.2683 35.1334C35.9349 36.1334 32.4116 36.6334 28.6999 36.6334C27.7449 36.6334 27.0233 36.6117 26.5333 36.5667C27.044 34.6573 27.9465 32.8751 29.1833 31.3334V31.3334ZM26.0999 40C26.0999 39.91 26.1049 39.8 26.1166 39.6667C26.1283 39.5334 26.1333 39.4234 26.1333 39.3334C26.5566 39.3567 27.2016 39.3667 28.0683 39.3667C32.5116 39.3667 36.6449 38.755 40.4666 37.5334C40.7783 38.155 41.1016 38.855 41.4333 39.6334C39.2333 40.1217 36.9766 41.31 34.6649 43.2C32.3533 45.09 30.6666 47.0784 29.5999 49.1667C27.2666 46.5217 26.0999 43.4667 26.0999 40V40ZM39.9999 53.9C36.8433 53.9 34.0099 52.9217 31.4983 50.9684C32.4999 48.99 34.0383 47.0984 36.1166 45.3C38.1933 43.5 40.2549 42.3784 42.2999 41.9334C43.5899 45.4984 44.4624 49.2008 44.8999 52.9667C43.338 53.577 41.6768 53.8935 39.9999 53.9V53.9ZM51.7999 47.3C50.709 49.0576 49.2401 50.5499 47.4999 51.6684C47.0999 48.2017 46.3333 44.8234 45.2016 41.5334C46.7549 41.4234 48.1433 41.3667 49.3683 41.3667C50.6999 41.3667 52.1783 41.4234 53.7999 41.5334C53.5823 43.5831 52.8982 45.5558 51.7999 47.3ZM49.7333 38.9667C47.7999 38.9667 46.0116 39.045 44.3666 39.2C44.0181 38.288 43.6402 37.3875 43.2333 36.5C46.6766 34.99 49.1199 33.1567 50.5649 31C52.5649 33.3567 53.6549 36.045 53.8316 39.0667C52.4783 39 51.1116 38.9667 49.7333 38.9667V38.9667Z" fill="white"/>
</svg>
