<svg width="110" height="110" viewBox="0 0 110 110" fill="none" xmlns="http://www.w3.org/2000/svg">
<circle cx="55" cy="55" r="45" fill="#3E64FF"/>
<circle cx="55" cy="55" r="50" stroke="#3E64FF" stroke-opacity="0.5" stroke-width="10"/>
<path d="M45 45C45 44.1159 45.3511 43.2681 45.9763 42.643C46.6014 42.0178 47.4492 41.6666 48.3333 41.6666C48.7753 41.6666 49.1992 41.4911 49.5118 41.1785C49.8244 40.8659 50 40.442 50 40C50 39.558 49.8244 39.134 49.5118 38.8215C49.1992 38.5089 48.7753 38.3333 48.3333 38.3333C46.5652 38.3333 44.8695 39.0357 43.6192 40.2859C42.369 41.5362 41.6666 43.2319 41.6666 45V50C41.6666 50.884 41.3154 51.7319 40.6903 52.357C40.0652 52.9821 39.2173 53.3333 38.3333 53.3333C37.8913 53.3333 37.4673 53.5089 37.1548 53.8215C36.8422 54.134 36.6666 54.558 36.6666 55C36.6666 55.442 36.8422 55.8659 37.1548 56.1785C37.4673 56.4911 37.8913 56.6666 38.3333 56.6666C39.2173 56.6666 40.0652 57.0178 40.6903 57.643C41.3154 58.2681 41.6666 59.1159 41.6666 60V65C41.6666 66.7681 42.369 68.4638 43.6192 69.714C44.8695 70.9643 46.5652 71.6666 48.3333 71.6666C48.7753 71.6666 49.1992 71.4911 49.5118 71.1785C49.8244 70.8659 50 70.442 50 70C50 69.558 49.8244 69.134 49.5118 68.8215C49.1992 68.5089 48.7753 68.3333 48.3333 68.3333C47.4492 68.3333 46.6014 67.9821 45.9763 67.357C45.3511 66.7319 45 65.884 45 65V60C44.9946 59.0509 44.7866 58.1138 44.39 57.2516C43.9934 56.3893 43.4172 55.6216 42.7 55C43.4172 54.3783 43.9934 53.6107 44.39 52.7484C44.7866 51.8861 44.9946 50.9491 45 50V45ZM71.6666 53.3333C70.7826 53.3333 69.9347 52.9821 69.3096 52.357C68.6845 51.7319 68.3333 50.884 68.3333 50V45C68.3333 43.2319 67.6309 41.5362 66.3807 40.2859C65.1304 39.0357 63.4347 38.3333 61.6666 38.3333C61.2246 38.3333 60.8007 38.5089 60.4881 38.8215C60.1756 39.134 60 39.558 60 40C60 40.442 60.1756 40.8659 60.4881 41.1785C60.8007 41.4911 61.2246 41.6666 61.6666 41.6666C62.5507 41.6666 63.3985 42.0178 64.0236 42.643C64.6488 43.2681 65 44.1159 65 45V50C65.0053 50.9491 65.2133 51.8861 65.6099 52.7484C66.0066 53.6107 66.5828 54.3783 67.3 55C66.5828 55.6216 66.0066 56.3893 65.6099 57.2516C65.2133 58.1138 65.0053 59.0509 65 60V65C65 65.884 64.6488 66.7319 64.0236 67.357C63.3985 67.9821 62.5507 68.3333 61.6666 68.3333C61.2246 68.3333 60.8007 68.5089 60.4881 68.8215C60.1756 69.134 60 69.558 60 70C60 70.442 60.1756 70.8659 60.4881 71.1785C60.8007 71.4911 61.2246 71.6666 61.6666 71.6666C63.4347 71.6666 65.1304 70.9643 66.3807 69.714C67.6309 68.4638 68.3333 66.7681 68.3333 65V60C68.3333 59.1159 68.6845 58.2681 69.3096 57.643C69.9347 57.0178 70.7826 56.6666 71.6666 56.6666C72.1087 56.6666 72.5326 56.4911 72.8451 56.1785C73.1577 55.8659 73.3333 55.442 73.3333 55C73.3333 54.558 73.1577 54.134 72.8451 53.8215C72.5326 53.5089 72.1087 53.3333 71.6666 53.3333Z" fill="white"/>
</svg>
