<svg width="80" height="80" viewBox="0 0 80 80" fill="none" xmlns="http://www.w3.org/2000/svg">
<rect width="80" height="80" fill="#5851DB"/>
<path d="M39.9984 32.2949C37.9545 32.2949 35.9943 33.1069 34.549 34.5522C33.1037 35.9974 32.2917 37.9577 32.2917 40.0016C32.2917 42.0455 33.1037 44.0057 34.549 45.451C35.9943 46.8963 37.9545 47.7083 39.9984 47.7083C42.0423 47.7083 44.0026 46.8963 45.4479 45.451C46.8931 44.0057 47.7051 42.0455 47.7051 40.0016C47.7051 37.9577 46.8931 35.9974 45.4479 34.5522C44.0026 33.1069 42.0423 32.2949 39.9984 32.2949V32.2949ZM39.9984 45.0066C38.6706 45.0066 37.3971 44.4791 36.4582 43.5402C35.5192 42.6012 34.9917 41.3278 34.9917 39.9999C34.9917 38.6721 35.5192 37.3986 36.4582 36.4597C37.3971 35.5207 38.6706 34.9933 39.9984 34.9933C41.3263 34.9933 42.5997 35.5207 43.5387 36.4597C44.4776 37.3986 45.0051 38.6721 45.0051 39.9999C45.0051 41.3278 44.4776 42.6012 43.5387 43.5402C42.5997 44.4791 41.3263 45.0066 39.9984 45.0066V45.0066Z" fill="white"/>
<path d="M48.01 33.8083C49.0023 33.8083 49.8067 33.0039 49.8067 32.0116C49.8067 31.0194 49.0023 30.215 48.01 30.215C47.0178 30.215 46.2134 31.0194 46.2134 32.0116C46.2134 33.0039 47.0178 33.8083 48.01 33.8083Z" fill="white"/>
<path d="M54.2218 30.185C53.8359 29.1886 53.2463 28.2838 52.4906 27.5284C51.735 26.773 50.8299 26.1838 49.8334 25.7983C48.6673 25.3606 47.4354 25.1239 46.1901 25.0983C44.5851 25.0283 44.0768 25.0083 40.0068 25.0083C35.9368 25.0083 35.4151 25.0083 33.8234 25.0983C32.5791 25.1226 31.348 25.3593 30.1834 25.7983C29.1866 26.1833 28.2814 26.7724 27.5256 27.5278C26.7699 28.2833 26.1805 29.1883 25.7951 30.185C25.3573 31.351 25.1211 32.583 25.0968 33.8283C25.0251 35.4316 25.0034 35.94 25.0034 40.0116C25.0034 44.0816 25.0034 44.6 25.0968 46.195C25.1218 47.4416 25.3568 48.6716 25.7951 49.84C26.1815 50.8362 26.7716 51.7409 27.5275 52.4963C28.2834 53.2516 29.1885 53.8409 30.1851 54.2266C31.3475 54.682 32.579 54.9356 33.8268 54.9766C35.4318 55.0466 35.9401 55.0683 40.0101 55.0683C44.0801 55.0683 44.6018 55.0683 46.1934 54.9766C47.4386 54.9513 48.6705 54.7152 49.8368 54.2783C50.833 53.8919 51.7378 53.3022 52.4934 52.5466C53.2489 51.791 53.8387 50.8862 54.2251 49.89C54.6634 48.7233 54.8984 47.4933 54.9234 46.2466C54.9951 44.6433 55.0167 44.135 55.0167 40.0633C55.0167 35.9916 55.0168 35.475 54.9234 33.88C54.904 32.6171 54.6666 31.367 54.2218 30.185V30.185ZM52.1918 46.0716C52.181 47.0321 52.0057 47.9837 51.6734 48.885C51.4231 49.5331 51.04 50.1216 50.5485 50.6128C50.0571 51.1039 49.4683 51.4867 48.8201 51.7366C47.9288 52.0674 46.9874 52.2427 46.0368 52.255C44.4534 52.3283 44.0068 52.3466 39.9468 52.3466C35.8834 52.3466 35.4684 52.3466 33.8551 52.255C32.905 52.2433 31.964 52.068 31.0734 51.7366C30.4229 51.4883 29.8318 51.1061 29.3382 50.6149C28.8447 50.1237 28.4598 49.5343 28.2084 48.885C27.8808 47.9934 27.7056 47.053 27.6901 46.1033C27.6184 44.52 27.6018 44.0733 27.6018 40.0133C27.6018 35.9516 27.6018 35.5366 27.6901 33.9216C27.7009 32.9617 27.8762 32.0107 28.2084 31.11C28.7168 29.795 29.7584 28.76 31.0734 28.2566C31.9644 27.9269 32.9051 27.7516 33.8551 27.7383C35.4401 27.6666 35.8851 27.6466 39.9468 27.6466C44.0084 27.6466 44.4251 27.6466 46.0368 27.7383C46.9874 27.7497 47.929 27.9251 48.8201 28.2566C49.4683 28.5071 50.057 28.8903 50.5484 29.3817C51.0397 29.8731 51.423 30.4618 51.6734 31.11C52.001 32.0015 52.1762 32.9419 52.1918 33.8916C52.2634 35.4766 52.2817 35.9216 52.2817 39.9833C52.2817 44.0433 52.2817 44.48 52.2101 46.0733H52.1918V46.0716Z" fill="white"/>
</svg>
