<svg width="80" height="80" viewBox="0 0 80 80" fill="none" xmlns="http://www.w3.org/2000/svg">
<rect width="80" height="80" fill="#1769FF"/>
<path d="M33.0049 29.5516C33.9866 29.5516 34.8699 29.6366 35.6799 29.81C36.4849 29.9816 37.1716 30.265 37.7516 30.6566C38.3233 31.0483 38.7699 31.5683 39.0916 32.2216C39.4033 32.8666 39.5583 33.6733 39.5583 34.6266C39.5583 35.66 39.3249 36.5233 38.8566 37.2116C38.3849 37.9016 37.6899 38.4666 36.7633 38.9033C38.0249 39.2683 38.9599 39.9066 39.5799 40.8133C40.2033 41.7283 40.5083 42.8233 40.5083 44.1066C40.5083 45.1483 40.3099 46.0433 39.9116 46.795C39.5277 47.5355 38.9709 48.1724 38.2883 48.6516C37.5812 49.144 36.7914 49.5053 35.9566 49.7183C35.0813 49.9481 34.1799 50.0635 33.2749 50.0616H23.3333V29.5516H33.0049ZM32.4199 37.8383C33.2199 37.8383 33.8833 37.6483 34.4066 37.2633C34.9266 36.8833 35.1783 36.2566 35.1783 35.3983C35.1783 34.9216 35.0933 34.5283 34.9266 34.22C34.7642 33.9233 34.5239 33.6767 34.2316 33.5066C33.9256 33.3252 33.588 33.2036 33.2366 33.1483C32.8536 33.0769 32.4645 33.0428 32.0749 33.0466H27.8499V37.8383H32.4199V37.8383ZM32.6716 46.57C33.1166 46.57 33.5399 46.5316 33.9383 46.4416C34.3399 46.355 34.6966 46.215 34.9999 46.0066C35.3033 45.8066 35.5533 45.535 35.7333 45.1883C35.9149 44.845 36.0033 44.3966 36.0033 43.8583C36.0033 42.8016 35.7049 42.05 35.1149 41.595C34.5233 41.145 33.7299 40.9216 32.7583 40.9216H27.8499V46.5716H32.6716V46.57ZM46.9466 46.5016C47.5583 47.0983 48.4399 47.3983 49.5866 47.3983C50.4083 47.3983 51.1183 47.19 51.7166 46.7766C52.3066 46.3616 52.6666 45.9183 52.8049 45.46H56.3966C55.8199 47.2466 54.9449 48.5233 53.7483 49.2916C52.5666 50.0633 51.1283 50.4466 49.4483 50.4466C48.2783 50.4466 47.2249 50.2583 46.2816 49.885C45.3761 49.5324 44.5579 48.9876 43.8833 48.2883C43.2197 47.5727 42.7068 46.731 42.3749 45.8133C42.0101 44.7985 41.8295 43.7266 41.8416 42.6483C41.8416 41.5383 42.0266 40.5 42.3899 39.5416C42.7348 38.6153 43.2644 37.7687 43.9466 37.0533C44.6216 36.3533 45.4216 35.8016 46.3533 35.3966C47.333 34.9846 48.3872 34.7792 49.4499 34.7933C50.7066 34.7933 51.8049 35.0366 52.7483 35.5266C53.6631 35.9944 54.4563 36.6689 55.0649 37.4966C55.6699 38.3183 56.1016 39.26 56.3699 40.315C56.6383 41.3683 56.7316 42.4683 56.6549 43.62H45.9366C45.9383 44.7933 46.3333 45.905 46.9466 46.5016V46.5016ZM51.6333 38.7C51.1483 38.1633 50.3283 37.8733 49.3249 37.8733C48.6733 37.8733 48.1349 37.9816 47.7016 38.205C47.3054 38.4051 46.9538 38.6835 46.6683 39.0233C46.4174 39.3318 46.2315 39.6878 46.1216 40.07C46.0255 40.3886 45.9634 40.7166 45.9366 41.0483H52.5733C52.4766 40.0083 52.1199 39.24 51.6333 38.7V38.7ZM45.1033 30.9283H53.4183V32.9533H45.1033V30.9283Z" fill="white"/>
</svg>
