<svg width="110" height="110" viewBox="0 0 110 110" fill="none" xmlns="http://www.w3.org/2000/svg">
<circle cx="55" cy="55" r="45" fill="#3E64FF"/>
<circle cx="55" cy="55" r="50" stroke="#3E64FF" stroke-opacity="0.5" stroke-width="10"/>
<path d="M66.8134 43.2583C66.8017 43.245 66.7967 43.2266 66.785 43.215C66.7734 43.2033 66.755 43.1983 66.7417 43.185C63.6242 40.0774 59.4019 38.3323 55 38.3323C50.5982 38.3323 46.3759 40.0774 43.2584 43.185C43.245 43.1983 43.2284 43.2016 43.215 43.215C43.2017 43.2283 43.1984 43.245 43.1867 43.2583C40.8638 45.5923 39.2844 48.5622 38.6478 51.793C38.0112 55.0239 38.3459 58.3709 39.6097 61.4116C40.8735 64.4524 43.0098 67.0507 45.7489 68.8785C48.4879 70.7063 51.7071 71.6818 55 71.6818C58.293 71.6818 61.5122 70.7063 64.2512 68.8785C66.9903 67.0507 69.1266 64.4524 70.3904 61.4116C71.6542 58.3709 71.9889 55.0239 71.3523 51.793C70.7157 48.5622 69.1363 45.5923 66.8134 43.2583ZM55 68.3333C53.0038 68.3326 51.0333 67.8828 49.2345 67.0173C47.4357 66.1518 45.8546 64.8927 44.6084 63.3333H51.3C51.7636 63.8573 52.3331 64.2768 52.971 64.5642C53.6088 64.8516 54.3005 65.0001 55 65.0001C55.6996 65.0001 56.3913 64.8516 57.0291 64.5642C57.667 64.2768 58.2365 63.8573 58.7001 63.3333H65.3917C64.1455 64.8927 62.5644 66.1518 60.7656 67.0173C58.9668 67.8828 56.9963 68.3326 55 68.3333V68.3333ZM53.3334 60C53.3334 59.6703 53.4311 59.3481 53.6143 59.074C53.7974 58.7999 54.0577 58.5863 54.3622 58.4602C54.6668 58.334 55.0019 58.301 55.3252 58.3653C55.6485 58.4296 55.9455 58.5884 56.1786 58.8215C56.4116 59.0546 56.5704 59.3515 56.6347 59.6748C56.699 59.9981 56.666 60.3332 56.5398 60.6378C56.4137 60.9423 56.2001 61.2026 55.926 61.3858C55.6519 61.5689 55.3297 61.6666 55 61.6666C54.5582 61.6662 54.1345 61.4905 53.822 61.178C53.5096 60.8655 53.3338 60.4419 53.3334 60V60ZM67.35 60.0033L67.3334 60H60C59.997 58.9692 59.6749 57.9647 59.0781 57.1244C58.4812 56.284 57.6389 55.6491 56.6667 55.3066V50C56.6667 49.5579 56.4911 49.134 56.1786 48.8215C55.866 48.5089 55.4421 48.3333 55 48.3333C54.558 48.3333 54.1341 48.5089 53.8215 48.8215C53.509 49.134 53.3334 49.5579 53.3334 50V55.3066C52.3612 55.6491 51.5188 56.284 50.922 57.1244C50.3252 57.9647 50.0031 58.9692 50 60H42.6667L42.65 60.0033C42.2167 58.9337 41.9254 57.8119 41.7834 56.6666H43.3334C43.7754 56.6666 44.1993 56.491 44.5119 56.1785C44.8245 55.8659 45 55.442 45 55C45 54.5579 44.8245 54.134 44.5119 53.8215C44.1993 53.5089 43.7754 53.3333 43.3334 53.3333H41.7834C42.0811 50.9642 43.0134 48.7195 44.4817 46.8366L45.5717 47.9283C45.7255 48.0875 45.9094 48.2145 46.1127 48.3018C46.316 48.3892 46.5347 48.4351 46.756 48.4371C46.9773 48.439 47.1968 48.3968 47.4016 48.313C47.6065 48.2292 47.7926 48.1055 47.949 47.949C48.1055 47.7925 48.2293 47.6064 48.3131 47.4016C48.3969 47.1967 48.4391 46.9773 48.4371 46.756C48.4352 46.5347 48.3892 46.316 48.3019 46.1126C48.2145 45.9093 48.0876 45.7254 47.9284 45.5716L46.8384 44.48C48.721 43.0126 50.965 42.0809 53.3334 41.7833V43.3333C53.3334 43.7753 53.509 44.1993 53.8215 44.5118C54.1341 44.8244 54.558 45 55 45C55.4421 45 55.866 44.8244 56.1786 44.5118C56.4911 44.1993 56.6667 43.7753 56.6667 43.3333V41.7833C59.0351 42.0809 61.2791 43.0126 63.1617 44.48L62.0717 45.5716C61.9125 45.7254 61.7856 45.9093 61.6982 46.1126C61.6109 46.316 61.5649 46.5347 61.563 46.756C61.561 46.9773 61.6032 47.1967 61.687 47.4016C61.7708 47.6064 61.8946 47.7925 62.0511 47.949C62.2075 48.1055 62.3936 48.2292 62.5985 48.313C62.8033 48.3968 63.0228 48.439 63.2441 48.4371C63.4654 48.4351 63.6841 48.3892 63.8874 48.3018C64.0907 48.2145 64.2746 48.0875 64.4284 47.9283L65.5184 46.8366C66.9873 48.7194 67.9202 50.964 68.2184 53.3333H66.6667C66.2247 53.3333 65.8008 53.5089 65.4882 53.8215C65.1756 54.134 65 54.5579 65 55C65 55.442 65.1756 55.8659 65.4882 56.1785C65.8008 56.491 66.2247 56.6666 66.6667 56.6666H68.2167C68.0747 57.8119 67.7834 58.9337 67.35 60.0033V60.0033Z" fill="white"/>
</svg>
