<svg width="110" height="110" viewBox="0 0 110 110" fill="none" xmlns="http://www.w3.org/2000/svg">
<circle cx="55" cy="55" r="45" fill="#3E64FF"/>
<circle cx="55" cy="55" r="50" stroke="#3E64FF" stroke-opacity="0.5" stroke-width="10"/>
<path d="M70.8167 42.8833L63.3334 38.6167C63.08 38.4704 62.7926 38.3934 62.5 38.3934C62.2075 38.3934 61.9201 38.4704 61.6667 38.6167L55 42.4167L48.3334 38.6167C48.08 38.4704 47.7926 38.3934 47.5 38.3934C47.2075 38.3934 46.9201 38.4704 46.6667 38.6167L39.1834 42.8833C38.9259 43.028 38.7116 43.2386 38.5622 43.4933C38.4129 43.7481 38.3339 44.038 38.3334 44.3333V52.8667C38.3339 53.162 38.4129 53.4519 38.5622 53.7067C38.7116 53.9614 38.9259 54.172 39.1834 54.3167L45.85 58.1V65.6667C45.8506 65.962 45.9295 66.2519 46.0789 66.5067C46.2282 66.7614 46.4426 66.972 46.7 67.1167L54.2 71.3833C54.4534 71.5296 54.7408 71.6066 55.0334 71.6066C55.3259 71.6066 55.6133 71.5296 55.8667 71.3833L63.3334 67.1167C63.5908 66.972 63.8052 66.7614 63.9545 66.5067C64.1039 66.2519 64.1829 65.962 64.1834 65.6667V58.1L70.85 54.3167C71.1075 54.172 71.3219 53.9614 71.4712 53.7067C71.6206 53.4519 71.6995 53.162 71.7 52.8667V44.3333C71.6962 44.0347 71.6123 43.7425 71.4569 43.4874C71.3015 43.2323 71.0804 43.0237 70.8167 42.8833V42.8833ZM41.6667 51.9V45.2333L47.5 41.9L53.3334 45.2333V51.9L47.5 55.2333L41.6667 51.9ZM60.8334 64.7L55 68.0333L49.1667 64.7V58.0333L55 54.7L60.8334 58.0333V64.7ZM68.3334 51.9L62.5 55.2333L56.6667 51.9V45.2333L62.5 41.9L68.3334 45.2333V51.9Z" fill="white"/>
</svg>
