<svg width="110" height="110" viewBox="0 0 110 110" fill="none" xmlns="http://www.w3.org/2000/svg">
<circle cx="55" cy="55" r="45" fill="#3E64FF"/>
<circle cx="55" cy="55" r="50" stroke="#3E64FF" stroke-opacity="0.5" stroke-width="10"/>
<path d="M53.3 40.3833C53.3 39.3167 52.3166 38.5 51.2833 38.75C49.4166 39.1833 47.6666 39.9167 46.0833 40.9167C45.1833 41.4833 45.0666 42.75 45.8166 43.5C46.35 44.0333 47.1833 44.1667 47.8333 43.75C49.1253 42.9237 50.5526 42.3314 52.05 42C52.8 41.8333 53.3 41.15 53.3 40.3833V40.3833ZM43.45 45.85C42.7 45.1 41.4333 45.2167 40.8666 46.1167C39.8666 47.6833 39.1333 49.4333 38.7 51.3167C38.4666 52.35 39.2833 53.3333 40.35 53.3333C41.1 53.3333 41.8 52.8333 41.9666 52.1C42.3 50.5833 42.9166 49.15 43.7166 47.8833C44.1166 47.2333 43.9833 46.3833 43.45 45.85V45.85ZM40.35 56.6667C39.2833 56.6667 38.4666 57.65 38.7166 58.6833C39.15 60.55 39.8833 62.3 40.8833 63.8667C41.45 64.7667 42.7166 64.8833 43.4666 64.1333C44 63.6 44.1333 62.75 43.7166 62.1167C42.9 60.85 42.3 59.4333 41.9666 57.9C41.8718 57.5444 41.6616 57.2304 41.369 57.0072C41.0764 56.784 40.718 56.6642 40.35 56.6667V56.6667ZM56.7 40.4C56.7 41.1667 57.2166 41.85 57.95 42.0167C63.8666 43.3833 68.2833 48.7 68.2833 55C68.2833 61.3 63.8666 66.6167 57.95 67.9833C57.2166 68.15 56.7 68.8333 56.7 69.5833C56.7 70.65 57.7 71.4667 58.7333 71.2167C66.1166 69.5 71.6166 62.8667 71.6166 54.9833C71.6166 47.1 66.1166 40.4667 58.7333 38.75C57.7 38.5167 56.7 39.3333 56.7 40.4V40.4ZM46.0666 69.0833C47.6333 70.0833 49.4 70.8167 51.2666 71.25C52.3 71.4833 53.2833 70.6667 53.2833 69.6167C53.2833 68.8667 52.7833 68.1667 52.05 68C50.554 67.6644 49.1273 67.0723 47.8333 66.25C47.1833 65.8333 46.35 65.9667 45.8166 66.5167C45.0666 67.2667 45.1833 68.5167 46.0666 69.0833Z" fill="white"/>
<path d="M53.3999 60.85L60.3166 56.4C60.5505 56.2489 60.7428 56.0416 60.876 55.797C61.0092 55.5525 61.0789 55.2785 61.0789 55C61.0789 54.7215 61.0092 54.4475 60.876 54.2029C60.7428 53.9584 60.5505 53.7511 60.3166 53.6L53.3999 49.15C52.2999 48.4333 50.8333 49.2333 50.8333 50.55V59.45C50.8333 60.7667 52.2999 61.5667 53.3999 60.85Z" fill="white"/>
</svg>
