<svg width="110" height="110" viewBox="0 0 110 110" fill="none" xmlns="http://www.w3.org/2000/svg">
<circle cx="55" cy="55" r="45" fill="#3E64FF"/>
<circle cx="55" cy="55" r="50" stroke="#3E64FF" stroke-opacity="0.5" stroke-width="10"/>
<path d="M71.6667 53.3333C71.6596 53.2446 71.6596 53.1554 71.6667 53.0666C71.6667 52.6 71.5333 52.1333 71.45 51.6666C71.1452 50.2858 70.6576 48.9518 70 47.7C68.8773 45.4029 67.2411 43.3948 65.218 41.8313C63.195 40.2678 60.8393 39.1907 58.3333 38.6833L56.9333 38.4666H56.05L55 38.3333H53.0667L51.6667 38.6666C48.4668 39.3228 45.5302 40.9048 43.2219 43.216C40.9136 45.5273 39.3354 48.4659 38.6833 51.6666C38.6 52.1333 38.5333 52.6 38.4667 53.0666C38.4738 53.1554 38.4738 53.2446 38.4667 53.3333V56.6666C38.4738 56.7554 38.4738 56.8446 38.4667 56.9333C38.4667 57.4 38.6 57.8666 38.6833 58.3333C38.9458 59.7077 39.3885 61.0415 40 62.3C41.1227 64.5971 42.7589 66.6051 44.782 68.1687C46.805 69.7322 49.1607 70.8093 51.6667 71.3166L53.0667 71.5333L53.3333 71.6666H55.0167C55.5833 71.6666 56.15 71.6666 56.6833 71.5833H56.95L58.3333 71.3333C61.5333 70.6772 64.4698 69.0952 66.7781 66.7839C69.0864 64.4727 70.6646 61.5341 71.3167 58.3333C71.4 57.8666 71.4667 57.4 71.5333 56.9333C71.5697 56.8406 71.6144 56.7514 71.6667 56.6666C71.6667 56.1166 71.75 55.55 71.75 55C71.75 54.45 71.6667 53.8666 71.6667 53.3333ZM56.9333 41.8333L57.7667 41.95C60.7796 42.5931 63.4769 44.2598 65.4 46.6666H54.0333L56.9333 41.8333ZM52.3667 41.9666L53.0333 41.8666L47.3 51.6666L44.5 46.8C46.4394 44.3139 49.197 42.5955 52.2833 41.95L52.3667 41.9666ZM42.65 60C42.3488 59.2613 42.1146 58.4972 41.95 57.7166C41.95 57.35 41.8167 56.9666 41.7833 56.5833C41.7753 56.5169 41.7753 56.4497 41.7833 56.3833C41.6944 55.4855 41.6944 54.5811 41.7833 53.6833C41.7753 53.6169 41.7753 53.5497 41.7833 53.4833C41.7833 53.1 41.8833 52.7166 41.95 52.35C42.0966 51.605 42.3086 50.8744 42.5833 50.1666L48.3333 60H42.65ZM53.15 68.1833L52.3167 68.0666C49.2712 67.4371 46.5415 65.7627 44.6 63.3333H55.9667L53.15 68.1833ZM52.1167 60L49.2333 55L52.1167 50H57.8833L60.7667 55L57.8833 60H52.1167ZM57.7167 68.05L57.05 68.15L62.7 58.3333L65.5 63.2C63.5606 65.6861 60.803 67.4045 57.7167 68.05V68.05ZM68.2667 56.3833C68.2747 56.4497 68.2747 56.5169 68.2667 56.5833C68.2667 56.9666 68.1667 57.35 68.1 57.7166C67.9497 58.439 67.7378 59.1471 67.4667 59.8333L61.6667 50H67.2833C67.5845 50.7386 67.8188 51.5028 67.9833 52.2833C67.9833 52.65 68.1167 53.0333 68.15 53.4166C68.158 53.4831 68.158 53.5502 68.15 53.6166C68.2389 54.5145 68.2389 55.4188 68.15 56.3166L68.2667 56.3833Z" fill="white"/>
</svg>
