<svg width="110" height="110" viewBox="0 0 110 110" fill="none" xmlns="http://www.w3.org/2000/svg">
<circle cx="55" cy="55" r="45" fill="#3E64FF"/>
<circle cx="55" cy="55" r="50" stroke="#3E64FF" stroke-opacity="0.5" stroke-width="10"/>
<path d="M71.4999 51C71.1666 50.1667 70.1666 49.8333 69.3333 50.1667L64.4999 52.5L60.9999 49L57.4999 45.5L59.8333 40.6667C60.1666 39.8333 59.8333 38.8333 58.9999 38.5C58.1666 38.1667 57.1666 38.5 56.8333 39.3333L54.3333 44.5L43.6666 46.1667C42.9999 46.3333 42.4999 46.8333 42.3333 47.5L38.3333 66.8333C38.1666 67.3333 38.3333 68 38.8333 68.3333L41.6666 71.1667C41.9999 71.5 42.4999 71.6666 42.8333 71.6666H43.1666L62.4999 67.6667C63.1666 67.5 63.6666 67 63.8333 66.3333L65.4999 55.6667L70.6666 53.1667C71.4999 52.8333 71.8333 51.8333 71.4999 51V51ZM60.6666 64.6666L44.3333 68L50.4999 61.8333C52.9999 63 55.9999 62 57.1666 59.5C58.3333 57 57.3333 54 54.8333 52.8333C52.9999 52 50.6666 52.3333 49.1666 53.8333C47.6666 55.3333 47.3333 57.6667 48.1666 59.5L41.9999 65.6666L45.3333 49.3333L54.9999 47.6667L58.6666 51.3333L62.3333 55L60.6666 64.6666V64.6666ZM50.9999 57.3333C50.9999 56.8333 51.1666 56.5 51.4999 56.1667C52.1666 55.5 53.1666 55.5 53.8333 56.1667C54.4999 56.8333 54.4999 57.8333 53.8333 58.5C53.1666 59.1667 52.1666 59.1667 51.4999 58.5C51.1666 58.1667 50.9999 57.6667 50.9999 57.3333V57.3333Z" fill="white"/>
</svg>
